solid ASCII
  facet normal 0.000000e+00 7.071068e-01 -7.071068e-01
    outer loop
      vertex   1.700000e+02 4.000000e+00 1.000000e+01
      vertex   0.000000e+00 4.000000e+00 1.000000e+01
      vertex   1.700000e+02 7.000000e+00 1.300000e+01
    endloop
  endfacet
  facet normal 7.388670e-18 7.071068e-01 -7.071068e-01
    outer loop
      vertex   1.700000e+02 7.000000e+00 1.300000e+01
      vertex   0.000000e+00 4.000000e+00 1.000000e+01
      vertex   0.000000e+00 7.000000e+00 1.300000e+01
    endloop
  endfacet
  facet normal -0.000000e+00 7.071068e-01 7.071068e-01
    outer loop
      vertex   0.000000e+00 4.000000e+00 2.000000e+01
      vertex   1.700000e+02 4.000000e+00 2.000000e+01
      vertex   0.000000e+00 7.000000e+00 1.700000e+01
    endloop
  endfacet
  facet normal -0.000000e+00 7.071068e-01 7.071068e-01
    outer loop
      vertex   0.000000e+00 7.000000e+00 1.700000e+01
      vertex   1.700000e+02 4.000000e+00 2.000000e+01
      vertex   1.700000e+02 7.000000e+00 1.700000e+01
    endloop
  endfacet
  facet normal 0.000000e+00 7.071068e-01 -7.071068e-01
    outer loop
      vertex   1.700000e+02 4.000000e+00 4.175000e+01
      vertex   0.000000e+00 4.000000e+00 4.175000e+01
      vertex   1.700000e+02 7.000000e+00 4.475000e+01
    endloop
  endfacet
  facet normal 0.000000e+00 7.071068e-01 -7.071068e-01
    outer loop
      vertex   1.700000e+02 7.000000e+00 4.475000e+01
      vertex   0.000000e+00 4.000000e+00 4.175000e+01
      vertex   0.000000e+00 7.000000e+00 4.475000e+01
    endloop
  endfacet
  facet normal -0.000000e+00 7.071068e-01 7.071068e-01
    outer loop
      vertex   0.000000e+00 4.000000e+00 5.175000e+01
      vertex   1.700000e+02 4.000000e+00 5.175000e+01
      vertex   0.000000e+00 7.000000e+00 4.875000e+01
    endloop
  endfacet
  facet normal -0.000000e+00 7.071068e-01 7.071068e-01
    outer loop
      vertex   0.000000e+00 7.000000e+00 4.875000e+01
      vertex   1.700000e+02 4.000000e+00 5.175000e+01
      vertex   1.700000e+02 7.000000e+00 4.875000e+01
    endloop
  endfacet
  facet normal 0.000000e+00 7.071068e-01 -7.071068e-01
    outer loop
      vertex   1.700000e+02 4.000000e+00 7.350000e+01
      vertex   0.000000e+00 4.000000e+00 7.350000e+01
      vertex   1.700000e+02 7.000000e+00 7.650000e+01
    endloop
  endfacet
  facet normal 0.000000e+00 7.071068e-01 -7.071068e-01
    outer loop
      vertex   1.700000e+02 7.000000e+00 7.650000e+01
      vertex   0.000000e+00 4.000000e+00 7.350000e+01
      vertex   0.000000e+00 7.000000e+00 7.650000e+01
    endloop
  endfacet
  facet normal -0.000000e+00 7.071068e-01 7.071068e-01
    outer loop
      vertex   0.000000e+00 4.000000e+00 8.350000e+01
      vertex   1.700000e+02 4.000000e+00 8.350000e+01
      vertex   0.000000e+00 7.000000e+00 8.050000e+01
    endloop
  endfacet
  facet normal -0.000000e+00 7.071068e-01 7.071068e-01
    outer loop
      vertex   0.000000e+00 7.000000e+00 8.050000e+01
      vertex   1.700000e+02 4.000000e+00 8.350000e+01
      vertex   1.700000e+02 7.000000e+00 8.050000e+01
    endloop
  endfacet
  facet normal 0.000000e+00 7.071068e-01 -7.071068e-01
    outer loop
      vertex   1.700000e+02 4.000000e+00 1.052500e+02
      vertex   0.000000e+00 4.000000e+00 1.052500e+02
      vertex   1.700000e+02 7.000000e+00 1.082500e+02
    endloop
  endfacet
  facet normal 0.000000e+00 7.071068e-01 -7.071068e-01
    outer loop
      vertex   1.700000e+02 7.000000e+00 1.082500e+02
      vertex   0.000000e+00 4.000000e+00 1.052500e+02
      vertex   0.000000e+00 7.000000e+00 1.082500e+02
    endloop
  endfacet
  facet normal -0.000000e+00 7.071068e-01 7.071068e-01
    outer loop
      vertex   0.000000e+00 4.000000e+00 1.152500e+02
      vertex   1.700000e+02 4.000000e+00 1.152500e+02
      vertex   0.000000e+00 7.000000e+00 1.122500e+02
    endloop
  endfacet
  facet normal -0.000000e+00 7.071068e-01 7.071068e-01
    outer loop
      vertex   0.000000e+00 7.000000e+00 1.122500e+02
      vertex   1.700000e+02 4.000000e+00 1.152500e+02
      vertex   1.700000e+02 7.000000e+00 1.122500e+02
    endloop
  endfacet
  facet normal 0.000000e+00 7.071068e-01 -7.071068e-01
    outer loop
      vertex   1.700000e+02 4.000000e+00 1.370000e+02
      vertex   0.000000e+00 4.000000e+00 1.370000e+02
      vertex   1.700000e+02 7.000000e+00 1.400000e+02
    endloop
  endfacet
  facet normal 0.000000e+00 7.071068e-01 -7.071068e-01
    outer loop
      vertex   1.700000e+02 7.000000e+00 1.400000e+02
      vertex   0.000000e+00 4.000000e+00 1.370000e+02
      vertex   0.000000e+00 7.000000e+00 1.400000e+02
    endloop
  endfacet
  facet normal -0.000000e+00 7.071068e-01 7.071068e-01
    outer loop
      vertex   0.000000e+00 4.000000e+00 1.470000e+02
      vertex   1.700000e+02 4.000000e+00 1.470000e+02
      vertex   0.000000e+00 7.000000e+00 1.440000e+02
    endloop
  endfacet
  facet normal -0.000000e+00 7.071068e-01 7.071068e-01
    outer loop
      vertex   0.000000e+00 7.000000e+00 1.440000e+02
      vertex   1.700000e+02 4.000000e+00 1.470000e+02
      vertex   1.700000e+02 7.000000e+00 1.440000e+02
    endloop
  endfacet
  facet normal 0.000000e+00 1.000000e+00 -0.000000e+00
    outer loop
      vertex   1.700000e+02 7.000000e+00 1.300000e+01
      vertex   0.000000e+00 7.000000e+00 1.300000e+01
      vertex   1.700000e+02 7.000000e+00 1.700000e+01
    endloop
  endfacet
  facet normal 0.000000e+00 1.000000e+00 0.000000e+00
    outer loop
      vertex   1.700000e+02 7.000000e+00 1.700000e+01
      vertex   0.000000e+00 7.000000e+00 1.300000e+01
      vertex   0.000000e+00 7.000000e+00 1.700000e+01
    endloop
  endfacet
  facet normal 1.000000e+00 -0.000000e+00 0.000000e+00
    outer loop
      vertex   0.000000e+00 7.000000e+00 1.300000e+01
      vertex   0.000000e+00 3.100000e+01 0.000000e+00
      vertex   0.000000e+00 7.000000e+00 1.700000e+01
    endloop
  endfacet
  facet normal 1.000000e+00 -0.000000e+00 0.000000e+00
    outer loop
      vertex   0.000000e+00 7.000000e+00 1.700000e+01
      vertex   0.000000e+00 3.100000e+01 0.000000e+00
      vertex   0.000000e+00 1.400000e+01 8.600000e+01
    endloop
  endfacet
  facet normal 1.000000e+00 0.000000e+00 0.000000e+00
    outer loop
      vertex   0.000000e+00 7.000000e+00 1.700000e+01
      vertex   0.000000e+00 1.400000e+01 8.600000e+01
      vertex   0.000000e+00 7.000000e+00 4.475000e+01
    endloop
  endfacet
  facet normal 1.000000e+00 0.000000e+00 0.000000e+00
    outer loop
      vertex   0.000000e+00 7.000000e+00 4.475000e+01
      vertex   0.000000e+00 1.400000e+01 8.600000e+01
      vertex   0.000000e+00 7.000000e+00 4.875000e+01
    endloop
  endfacet
  facet normal 1.000000e+00 0.000000e+00 0.000000e+00
    outer loop
      vertex   0.000000e+00 7.000000e+00 4.875000e+01
      vertex   0.000000e+00 1.400000e+01 8.600000e+01
      vertex   0.000000e+00 7.000000e+00 7.650000e+01
    endloop
  endfacet
  facet normal 1.000000e+00 0.000000e+00 -0.000000e+00
    outer loop
      vertex   0.000000e+00 7.000000e+00 4.875000e+01
      vertex   0.000000e+00 7.000000e+00 7.650000e+01
      vertex   0.000000e+00 4.000000e+00 5.175000e+01
    endloop
  endfacet
  facet normal 1.000000e+00 0.000000e+00 0.000000e+00
    outer loop
      vertex   0.000000e+00 4.000000e+00 5.175000e+01
      vertex   0.000000e+00 7.000000e+00 7.650000e+01
      vertex   0.000000e+00 4.000000e+00 7.350000e+01
    endloop
  endfacet
  facet normal 1.000000e+00 -0.000000e+00 0.000000e+00
    outer loop
      vertex   0.000000e+00 4.000000e+00 1.000000e+01
      vertex   0.000000e+00 4.000000e+00 0.000000e+00
      vertex   0.000000e+00 7.000000e+00 1.300000e+01
    endloop
  endfacet
  facet normal 1.000000e+00 0.000000e+00 0.000000e+00
    outer loop
      vertex   0.000000e+00 7.000000e+00 1.300000e+01
      vertex   0.000000e+00 4.000000e+00 0.000000e+00
      vertex   0.000000e+00 3.100000e+01 0.000000e+00
    endloop
  endfacet
  facet normal 1.000000e+00 0.000000e+00 -0.000000e+00
    outer loop
      vertex   0.000000e+00 3.100000e+01 0.000000e+00
      vertex   0.000000e+00 3.100000e+01 8.600000e+01
      vertex   0.000000e+00 1.400000e+01 8.600000e+01
    endloop
  endfacet
  facet normal 1.000000e+00 0.000000e+00 0.000000e+00
    outer loop
      vertex   0.000000e+00 1.400000e+01 1.100000e+02
      vertex   0.000000e+00 7.000000e+00 1.082500e+02
      vertex   0.000000e+00 1.400000e+01 8.600000e+01
    endloop
  endfacet
  facet normal 1.000000e+00 0.000000e+00 0.000000e+00
    outer loop
      vertex   0.000000e+00 1.400000e+01 8.600000e+01
      vertex   0.000000e+00 7.000000e+00 1.082500e+02
      vertex   0.000000e+00 7.000000e+00 8.050000e+01
    endloop
  endfacet
  facet normal 1.000000e+00 0.000000e+00 0.000000e+00
    outer loop
      vertex   0.000000e+00 1.400000e+01 8.600000e+01
      vertex   0.000000e+00 7.000000e+00 8.050000e+01
      vertex   0.000000e+00 7.000000e+00 7.650000e+01
    endloop
  endfacet
  facet normal 1.000000e+00 0.000000e+00 -0.000000e+00
    outer loop
      vertex   0.000000e+00 3.100000e+01 1.100000e+02
      vertex   0.000000e+00 3.100000e+01 1.570000e+02
      vertex   0.000000e+00 1.400000e+01 1.100000e+02
    endloop
  endfacet
  facet normal 1.000000e+00 0.000000e+00 -0.000000e+00
    outer loop
      vertex   0.000000e+00 1.400000e+01 1.100000e+02
      vertex   0.000000e+00 3.100000e+01 1.570000e+02
      vertex   0.000000e+00 7.000000e+00 1.440000e+02
    endloop
  endfacet
  facet normal 1.000000e+00 0.000000e+00 0.000000e+00
    outer loop
      vertex   0.000000e+00 1.400000e+01 1.100000e+02
      vertex   0.000000e+00 7.000000e+00 1.440000e+02
      vertex   0.000000e+00 7.000000e+00 1.400000e+02
    endloop
  endfacet
  facet normal 1.000000e+00 0.000000e+00 0.000000e+00
    outer loop
      vertex   0.000000e+00 3.100000e+01 1.570000e+02
      vertex   0.000000e+00 4.000000e+00 1.570000e+02
      vertex   0.000000e+00 7.000000e+00 1.440000e+02
    endloop
  endfacet
  facet normal 1.000000e+00 0.000000e+00 0.000000e+00
    outer loop
      vertex   0.000000e+00 7.000000e+00 1.440000e+02
      vertex   0.000000e+00 4.000000e+00 1.570000e+02
      vertex   0.000000e+00 4.000000e+00 1.470000e+02
    endloop
  endfacet
  facet normal 1.000000e+00 -0.000000e+00 0.000000e+00
    outer loop
      vertex   0.000000e+00 4.000000e+00 1.370000e+02
      vertex   0.000000e+00 4.000000e+00 1.152500e+02
      vertex   0.000000e+00 7.000000e+00 1.400000e+02
    endloop
  endfacet
  facet normal 1.000000e+00 0.000000e+00 0.000000e+00
    outer loop
      vertex   0.000000e+00 7.000000e+00 1.400000e+02
      vertex   0.000000e+00 4.000000e+00 1.152500e+02
      vertex   0.000000e+00 7.000000e+00 1.122500e+02
    endloop
  endfacet
  facet normal 1.000000e+00 0.000000e+00 0.000000e+00
    outer loop
      vertex   0.000000e+00 7.000000e+00 1.400000e+02
      vertex   0.000000e+00 7.000000e+00 1.122500e+02
      vertex   0.000000e+00 1.400000e+01 1.100000e+02
    endloop
  endfacet
  facet normal 1.000000e+00 0.000000e+00 0.000000e+00
    outer loop
      vertex   0.000000e+00 1.400000e+01 1.100000e+02
      vertex   0.000000e+00 7.000000e+00 1.122500e+02
      vertex   0.000000e+00 7.000000e+00 1.082500e+02
    endloop
  endfacet
  facet normal 1.000000e+00 -0.000000e+00 0.000000e+00
    outer loop
      vertex   0.000000e+00 4.000000e+00 1.052500e+02
      vertex   0.000000e+00 4.000000e+00 8.350000e+01
      vertex   0.000000e+00 7.000000e+00 1.082500e+02
    endloop
  endfacet
  facet normal 1.000000e+00 0.000000e+00 0.000000e+00
    outer loop
      vertex   0.000000e+00 7.000000e+00 1.082500e+02
      vertex   0.000000e+00 4.000000e+00 8.350000e+01
      vertex   0.000000e+00 7.000000e+00 8.050000e+01
    endloop
  endfacet
  facet normal 1.000000e+00 -0.000000e+00 0.000000e+00
    outer loop
      vertex   0.000000e+00 4.000000e+00 4.175000e+01
      vertex   0.000000e+00 4.000000e+00 2.000000e+01
      vertex   0.000000e+00 7.000000e+00 4.475000e+01
    endloop
  endfacet
  facet normal 1.000000e+00 0.000000e+00 0.000000e+00
    outer loop
      vertex   0.000000e+00 7.000000e+00 4.475000e+01
      vertex   0.000000e+00 4.000000e+00 2.000000e+01
      vertex   0.000000e+00 7.000000e+00 1.700000e+01
    endloop
  endfacet
  facet normal 0.000000e+00 1.000000e+00 0.000000e+00
    outer loop
      vertex   1.700000e+02 4.000000e+00 1.000000e+01
      vertex   1.700000e+02 4.000000e+00 0.000000e+00
      vertex   0.000000e+00 4.000000e+00 1.000000e+01
    endloop
  endfacet
  facet normal 0.000000e+00 1.000000e+00 0.000000e+00
    outer loop
      vertex   0.000000e+00 4.000000e+00 1.000000e+01
      vertex   1.700000e+02 4.000000e+00 0.000000e+00
      vertex   0.000000e+00 4.000000e+00 0.000000e+00
    endloop
  endfacet
  facet normal 0.000000e+00 1.000000e+00 -0.000000e+00
    outer loop
      vertex   1.700000e+02 7.000000e+00 1.400000e+02
      vertex   0.000000e+00 7.000000e+00 1.400000e+02
      vertex   1.700000e+02 7.000000e+00 1.440000e+02
    endloop
  endfacet
  facet normal 0.000000e+00 1.000000e+00 0.000000e+00
    outer loop
      vertex   1.700000e+02 7.000000e+00 1.440000e+02
      vertex   0.000000e+00 7.000000e+00 1.400000e+02
      vertex   0.000000e+00 7.000000e+00 1.440000e+02
    endloop
  endfacet
  facet normal -1.000000e+00 0.000000e+00 0.000000e+00
    outer loop
      vertex   1.700000e+02 4.000000e+00 2.000000e+01
      vertex   1.700000e+02 4.000000e+00 4.175000e+01
      vertex   1.700000e+02 7.000000e+00 1.700000e+01
    endloop
  endfacet
  facet normal -1.000000e+00 0.000000e+00 0.000000e+00
    outer loop
      vertex   1.700000e+02 7.000000e+00 1.700000e+01
      vertex   1.700000e+02 4.000000e+00 4.175000e+01
      vertex   1.700000e+02 7.000000e+00 4.475000e+01
    endloop
  endfacet
  facet normal -1.000000e+00 0.000000e+00 0.000000e+00
    outer loop
      vertex   1.700000e+02 7.000000e+00 1.700000e+01
      vertex   1.700000e+02 7.000000e+00 4.475000e+01
      vertex   1.700000e+02 3.100000e+01 0.000000e+00
    endloop
  endfacet
  facet normal -1.000000e+00 0.000000e+00 0.000000e+00
    outer loop
      vertex   1.700000e+02 3.100000e+01 0.000000e+00
      vertex   1.700000e+02 7.000000e+00 4.475000e+01
      vertex   1.700000e+02 7.000000e+00 4.875000e+01
    endloop
  endfacet
  facet normal -1.000000e+00 0.000000e+00 0.000000e+00
    outer loop
      vertex   1.700000e+02 3.100000e+01 0.000000e+00
      vertex   1.700000e+02 7.000000e+00 4.875000e+01
      vertex   1.700000e+02 7.000000e+00 7.650000e+01
    endloop
  endfacet
  facet normal -1.000000e+00 0.000000e+00 -0.000000e+00
    outer loop
      vertex   1.700000e+02 7.000000e+00 7.650000e+01
      vertex   1.700000e+02 7.000000e+00 4.875000e+01
      vertex   1.700000e+02 4.000000e+00 7.350000e+01
    endloop
  endfacet
  facet normal -1.000000e+00 0.000000e+00 0.000000e+00
    outer loop
      vertex   1.700000e+02 4.000000e+00 7.350000e+01
      vertex   1.700000e+02 7.000000e+00 4.875000e+01
      vertex   1.700000e+02 4.000000e+00 5.175000e+01
    endloop
  endfacet
  facet normal -1.000000e+00 0.000000e+00 0.000000e+00
    outer loop
      vertex   1.700000e+02 7.000000e+00 7.650000e+01
      vertex   1.700000e+02 7.000000e+00 8.050000e+01
      vertex   1.700000e+02 3.100000e+01 0.000000e+00
    endloop
  endfacet
  facet normal -1.000000e+00 0.000000e+00 0.000000e+00
    outer loop
      vertex   1.700000e+02 3.100000e+01 0.000000e+00
      vertex   1.700000e+02 7.000000e+00 8.050000e+01
      vertex   1.700000e+02 3.100000e+01 1.570000e+02
    endloop
  endfacet
  facet normal -1.000000e+00 0.000000e+00 0.000000e+00
    outer loop
      vertex   1.700000e+02 3.100000e+01 1.570000e+02
      vertex   1.700000e+02 7.000000e+00 8.050000e+01
      vertex   1.700000e+02 7.000000e+00 1.082500e+02
    endloop
  endfacet
  facet normal -1.000000e+00 0.000000e+00 0.000000e+00
    outer loop
      vertex   1.700000e+02 3.100000e+01 1.570000e+02
      vertex   1.700000e+02 7.000000e+00 1.082500e+02
      vertex   1.700000e+02 7.000000e+00 1.122500e+02
    endloop
  endfacet
  facet normal -1.000000e+00 0.000000e+00 0.000000e+00
    outer loop
      vertex   1.700000e+02 4.000000e+00 8.350000e+01
      vertex   1.700000e+02 4.000000e+00 1.052500e+02
      vertex   1.700000e+02 7.000000e+00 8.050000e+01
    endloop
  endfacet
  facet normal -1.000000e+00 0.000000e+00 0.000000e+00
    outer loop
      vertex   1.700000e+02 7.000000e+00 8.050000e+01
      vertex   1.700000e+02 4.000000e+00 1.052500e+02
      vertex   1.700000e+02 7.000000e+00 1.082500e+02
    endloop
  endfacet
  facet normal -1.000000e+00 0.000000e+00 0.000000e+00
    outer loop
      vertex   1.700000e+02 4.000000e+00 1.152500e+02
      vertex   1.700000e+02 4.000000e+00 1.370000e+02
      vertex   1.700000e+02 7.000000e+00 1.122500e+02
    endloop
  endfacet
  facet normal -1.000000e+00 0.000000e+00 0.000000e+00
    outer loop
      vertex   1.700000e+02 7.000000e+00 1.122500e+02
      vertex   1.700000e+02 4.000000e+00 1.370000e+02
      vertex   1.700000e+02 7.000000e+00 1.400000e+02
    endloop
  endfacet
  facet normal -1.000000e+00 0.000000e+00 0.000000e+00
    outer loop
      vertex   1.700000e+02 7.000000e+00 1.122500e+02
      vertex   1.700000e+02 7.000000e+00 1.400000e+02
      vertex   1.700000e+02 3.100000e+01 1.570000e+02
    endloop
  endfacet
  facet normal -1.000000e+00 0.000000e+00 0.000000e+00
    outer loop
      vertex   1.700000e+02 3.100000e+01 1.570000e+02
      vertex   1.700000e+02 7.000000e+00 1.400000e+02
      vertex   1.700000e+02 7.000000e+00 1.440000e+02
    endloop
  endfacet
  facet normal -1.000000e+00 -0.000000e+00 0.000000e+00
    outer loop
      vertex   1.700000e+02 3.100000e+01 1.570000e+02
      vertex   1.700000e+02 7.000000e+00 1.440000e+02
      vertex   1.700000e+02 4.000000e+00 1.570000e+02
    endloop
  endfacet
  facet normal -1.000000e+00 0.000000e+00 0.000000e+00
    outer loop
      vertex   1.700000e+02 4.000000e+00 1.570000e+02
      vertex   1.700000e+02 7.000000e+00 1.440000e+02
      vertex   1.700000e+02 4.000000e+00 1.470000e+02
    endloop
  endfacet
  facet normal -1.000000e+00 0.000000e+00 0.000000e+00
    outer loop
      vertex   1.700000e+02 7.000000e+00 1.700000e+01
      vertex   1.700000e+02 3.100000e+01 0.000000e+00
      vertex   1.700000e+02 7.000000e+00 1.300000e+01
    endloop
  endfacet
  facet normal -1.000000e+00 0.000000e+00 -0.000000e+00
    outer loop
      vertex   1.700000e+02 7.000000e+00 1.300000e+01
      vertex   1.700000e+02 3.100000e+01 0.000000e+00
      vertex   1.700000e+02 4.000000e+00 0.000000e+00
    endloop
  endfacet
  facet normal -1.000000e+00 0.000000e+00 0.000000e+00
    outer loop
      vertex   1.700000e+02 7.000000e+00 1.300000e+01
      vertex   1.700000e+02 4.000000e+00 0.000000e+00
      vertex   1.700000e+02 4.000000e+00 1.000000e+01
    endloop
  endfacet
  facet normal 0.000000e+00 1.000000e+00 0.000000e+00
    outer loop
      vertex   0.000000e+00 4.000000e+00 1.470000e+02
      vertex   0.000000e+00 4.000000e+00 1.570000e+02
      vertex   1.700000e+02 4.000000e+00 1.470000e+02
    endloop
  endfacet
  facet normal 0.000000e+00 1.000000e+00 -0.000000e+00
    outer loop
      vertex   1.700000e+02 4.000000e+00 1.470000e+02
      vertex   0.000000e+00 4.000000e+00 1.570000e+02
      vertex   1.700000e+02 4.000000e+00 1.570000e+02
    endloop
  endfacet
  facet normal 0.000000e+00 1.000000e+00 -0.000000e+00
    outer loop
      vertex   1.700000e+02 7.000000e+00 4.475000e+01
      vertex   0.000000e+00 7.000000e+00 4.475000e+01
      vertex   1.700000e+02 7.000000e+00 4.875000e+01
    endloop
  endfacet
  facet normal 0.000000e+00 1.000000e+00 0.000000e+00
    outer loop
      vertex   1.700000e+02 7.000000e+00 4.875000e+01
      vertex   0.000000e+00 7.000000e+00 4.475000e+01
      vertex   0.000000e+00 7.000000e+00 4.875000e+01
    endloop
  endfacet
  facet normal 0.000000e+00 1.000000e+00 0.000000e+00
    outer loop
      vertex   0.000000e+00 4.000000e+00 5.175000e+01
      vertex   0.000000e+00 4.000000e+00 7.350000e+01
      vertex   1.700000e+02 4.000000e+00 5.175000e+01
    endloop
  endfacet
  facet normal 0.000000e+00 1.000000e+00 -0.000000e+00
    outer loop
      vertex   1.700000e+02 4.000000e+00 5.175000e+01
      vertex   0.000000e+00 4.000000e+00 7.350000e+01
      vertex   1.700000e+02 4.000000e+00 7.350000e+01
    endloop
  endfacet
  facet normal 0.000000e+00 1.000000e+00 -0.000000e+00
    outer loop
      vertex   1.700000e+02 7.000000e+00 1.082500e+02
      vertex   0.000000e+00 7.000000e+00 1.082500e+02
      vertex   1.700000e+02 7.000000e+00 1.122500e+02
    endloop
  endfacet
  facet normal 0.000000e+00 1.000000e+00 0.000000e+00
    outer loop
      vertex   1.700000e+02 7.000000e+00 1.122500e+02
      vertex   0.000000e+00 7.000000e+00 1.082500e+02
      vertex   0.000000e+00 7.000000e+00 1.122500e+02
    endloop
  endfacet
  facet normal 0.000000e+00 1.000000e+00 0.000000e+00
    outer loop
      vertex   1.700000e+02 4.000000e+00 1.052500e+02
      vertex   1.700000e+02 4.000000e+00 8.350000e+01
      vertex   0.000000e+00 4.000000e+00 1.052500e+02
    endloop
  endfacet
  facet normal 0.000000e+00 1.000000e+00 0.000000e+00
    outer loop
      vertex   0.000000e+00 4.000000e+00 1.052500e+02
      vertex   1.700000e+02 4.000000e+00 8.350000e+01
      vertex   0.000000e+00 4.000000e+00 8.350000e+01
    endloop
  endfacet
  facet normal 0.000000e+00 1.000000e+00 -0.000000e+00
    outer loop
      vertex   1.700000e+02 7.000000e+00 7.650000e+01
      vertex   0.000000e+00 7.000000e+00 7.650000e+01
      vertex   1.700000e+02 7.000000e+00 8.050000e+01
    endloop
  endfacet
  facet normal 0.000000e+00 1.000000e+00 0.000000e+00
    outer loop
      vertex   1.700000e+02 7.000000e+00 8.050000e+01
      vertex   0.000000e+00 7.000000e+00 7.650000e+01
      vertex   0.000000e+00 7.000000e+00 8.050000e+01
    endloop
  endfacet
  facet normal 0.000000e+00 1.000000e+00 0.000000e+00
    outer loop
      vertex   0.000000e+00 4.000000e+00 2.000000e+01
      vertex   0.000000e+00 4.000000e+00 4.175000e+01
      vertex   1.700000e+02 4.000000e+00 2.000000e+01
    endloop
  endfacet
  facet normal 0.000000e+00 1.000000e+00 -0.000000e+00
    outer loop
      vertex   1.700000e+02 4.000000e+00 2.000000e+01
      vertex   0.000000e+00 4.000000e+00 4.175000e+01
      vertex   1.700000e+02 4.000000e+00 4.175000e+01
    endloop
  endfacet
  facet normal -1.000000e+00 0.000000e+00 0.000000e+00
    outer loop
      vertex   1.566000e+02 3.100000e+01 1.570000e+02
      vertex   1.566000e+02 1.400000e+01 1.570000e+02
      vertex   1.566000e+02 3.100000e+01 1.585000e+02
    endloop
  endfacet
  facet normal -1.000000e+00 -0.000000e+00 0.000000e+00
    outer loop
      vertex   1.566000e+02 3.100000e+01 1.585000e+02
      vertex   1.566000e+02 1.400000e+01 1.570000e+02
      vertex   1.566000e+02 1.400000e+01 1.600000e+02
    endloop
  endfacet
  facet normal -1.000000e+00 0.000000e+00 0.000000e+00
    outer loop
      vertex   1.566000e+02 3.100000e+01 1.585000e+02
      vertex   1.566000e+02 1.400000e+01 1.600000e+02
      vertex   1.566000e+02 4.100000e+01 1.600000e+02
    endloop
  endfacet
  facet normal -1.000000e+00 0.000000e+00 -0.000000e+00
    outer loop
      vertex   1.566000e+02 4.100000e+01 1.600000e+02
      vertex   1.566000e+02 4.100000e+01 1.585000e+02
      vertex   1.566000e+02 3.100000e+01 1.585000e+02
    endloop
  endfacet
  facet normal 1.000000e+00 -1.044916e-16 0.000000e+00
    outer loop
      vertex   1.340000e+01 3.100000e+01 1.570000e+02
      vertex   1.340000e+01 3.100000e+01 1.585000e+02
      vertex   1.340000e+01 1.400000e+01 1.570000e+02
    endloop
  endfacet
  facet normal 1.000000e+00 -1.044916e-16 0.000000e+00
    outer loop
      vertex   1.340000e+01 1.400000e+01 1.570000e+02
      vertex   1.340000e+01 3.100000e+01 1.585000e+02
      vertex   1.340000e+01 1.400000e+01 1.600000e+02
    endloop
  endfacet
  facet normal 1.000000e+00 -6.579099e-17 4.386059e-16
    outer loop
      vertex   1.340000e+01 1.400000e+01 1.600000e+02
      vertex   1.340000e+01 3.100000e+01 1.585000e+02
      vertex   1.340000e+01 4.100000e+01 1.600000e+02
    endloop
  endfacet
  facet normal 1.000000e+00 0.000000e+00 0.000000e+00
    outer loop
      vertex   1.340000e+01 4.100000e+01 1.600000e+02
      vertex   1.340000e+01 3.100000e+01 1.585000e+02
      vertex   1.340000e+01 4.100000e+01 1.585000e+02
    endloop
  endfacet
  facet normal 0.000000e+00 1.000000e+00 -0.000000e+00
    outer loop
      vertex   1.566000e+02 1.400000e+01 1.570000e+02
      vertex   1.340000e+01 1.400000e+01 1.570000e+02
      vertex   1.566000e+02 1.400000e+01 1.600000e+02
    endloop
  endfacet
  facet normal 0.000000e+00 1.000000e+00 0.000000e+00
    outer loop
      vertex   1.566000e+02 1.400000e+01 1.600000e+02
      vertex   1.340000e+01 1.400000e+01 1.570000e+02
      vertex   1.340000e+01 1.400000e+01 1.600000e+02
    endloop
  endfacet
  facet normal -0.000000e+00 -0.000000e+00 -1.000000e+00
    outer loop
      vertex   0.000000e+00 3.100000e+01 1.100000e+02
      vertex   0.000000e+00 1.400000e+01 1.100000e+02
      vertex   -1.500000e+00 3.100000e+01 1.100000e+02
    endloop
  endfacet
  facet normal 0.000000e+00 -0.000000e+00 -1.000000e+00
    outer loop
      vertex   -1.500000e+00 3.100000e+01 1.100000e+02
      vertex   0.000000e+00 1.400000e+01 1.100000e+02
      vertex   -3.000000e+00 1.400000e+01 1.100000e+02
    endloop
  endfacet
  facet normal -0.000000e+00 0.000000e+00 -1.000000e+00
    outer loop
      vertex   -1.500000e+00 3.100000e+01 1.100000e+02
      vertex   -3.000000e+00 1.400000e+01 1.100000e+02
      vertex   -3.000000e+00 4.100000e+01 1.100000e+02
    endloop
  endfacet
  facet normal 0.000000e+00 0.000000e+00 -1.000000e+00
    outer loop
      vertex   -3.000000e+00 4.100000e+01 1.100000e+02
      vertex   -1.500000e+00 4.100000e+01 1.100000e+02
      vertex   -1.500000e+00 3.100000e+01 1.100000e+02
    endloop
  endfacet
  facet normal 0.000000e+00 0.000000e+00 1.000000e+00
    outer loop
      vertex   0.000000e+00 3.100000e+01 8.600000e+01
      vertex   -1.500000e+00 3.100000e+01 8.600000e+01
      vertex   0.000000e+00 1.400000e+01 8.600000e+01
    endloop
  endfacet
  facet normal 0.000000e+00 0.000000e+00 1.000000e+00
    outer loop
      vertex   0.000000e+00 1.400000e+01 8.600000e+01
      vertex   -1.500000e+00 3.100000e+01 8.600000e+01
      vertex   -3.000000e+00 1.400000e+01 8.600000e+01
    endloop
  endfacet
  facet normal 0.000000e+00 0.000000e+00 1.000000e+00
    outer loop
      vertex   -3.000000e+00 1.400000e+01 8.600000e+01
      vertex   -1.500000e+00 3.100000e+01 8.600000e+01
      vertex   -3.000000e+00 4.100000e+01 8.600000e+01
    endloop
  endfacet
  facet normal -0.000000e+00 0.000000e+00 1.000000e+00
    outer loop
      vertex   -3.000000e+00 4.100000e+01 8.600000e+01
      vertex   -1.500000e+00 3.100000e+01 8.600000e+01
      vertex   -1.500000e+00 4.100000e+01 8.600000e+01
    endloop
  endfacet
  facet normal 0.000000e+00 1.000000e+00 0.000000e+00
    outer loop
      vertex   0.000000e+00 1.400000e+01 1.100000e+02
      vertex   0.000000e+00 1.400000e+01 8.600000e+01
      vertex   -3.000000e+00 1.400000e+01 1.100000e+02
    endloop
  endfacet
  facet normal 0.000000e+00 1.000000e+00 0.000000e+00
    outer loop
      vertex   -3.000000e+00 1.400000e+01 1.100000e+02
      vertex   0.000000e+00 1.400000e+01 8.600000e+01
      vertex   -3.000000e+00 1.400000e+01 8.600000e+01
    endloop
  endfacet
  facet normal -0.000000e+00 0.000000e+00 -1.000000e+00
    outer loop
      vertex   1.340000e+01 3.100000e+01 1.570000e+02
      vertex   1.340000e+01 1.400000e+01 1.570000e+02
      vertex   0.000000e+00 3.100000e+01 1.570000e+02
    endloop
  endfacet
  facet normal 0.000000e+00 0.000000e+00 -1.000000e+00
    outer loop
      vertex   0.000000e+00 3.100000e+01 1.570000e+02
      vertex   1.340000e+01 1.400000e+01 1.570000e+02
      vertex   0.000000e+00 4.000000e+00 1.570000e+02
    endloop
  endfacet
  facet normal 0.000000e+00 0.000000e+00 -1.000000e+00
    outer loop
      vertex   0.000000e+00 4.000000e+00 1.570000e+02
      vertex   1.340000e+01 1.400000e+01 1.570000e+02
      vertex   1.566000e+02 1.400000e+01 1.570000e+02
    endloop
  endfacet
  facet normal 0.000000e+00 0.000000e+00 -1.000000e+00
    outer loop
      vertex   0.000000e+00 4.000000e+00 1.570000e+02
      vertex   1.566000e+02 1.400000e+01 1.570000e+02
      vertex   1.700000e+02 4.000000e+00 1.570000e+02
    endloop
  endfacet
  facet normal 0.000000e+00 0.000000e+00 -1.000000e+00
    outer loop
      vertex   1.700000e+02 4.000000e+00 1.570000e+02
      vertex   1.566000e+02 1.400000e+01 1.570000e+02
      vertex   1.700000e+02 3.100000e+01 1.570000e+02
    endloop
  endfacet
  facet normal -0.000000e+00 0.000000e+00 -1.000000e+00
    outer loop
      vertex   1.700000e+02 3.100000e+01 1.570000e+02
      vertex   1.566000e+02 1.400000e+01 1.570000e+02
      vertex   1.566000e+02 3.100000e+01 1.570000e+02
    endloop
  endfacet
  facet normal 0.000000e+00 1.000000e+00 0.000000e+00
    outer loop
      vertex   1.566000e+02 4.100000e+01 1.585000e+02
      vertex   1.566000e+02 4.100000e+01 1.600000e+02
      vertex   1.715000e+02 4.100000e+01 1.585000e+02
    endloop
  endfacet
  facet normal 0.000000e+00 1.000000e+00 -0.000000e+00
    outer loop
      vertex   1.715000e+02 4.100000e+01 1.585000e+02
      vertex   1.566000e+02 4.100000e+01 1.600000e+02
      vertex   1.730000e+02 4.100000e+01 1.600000e+02
    endloop
  endfacet
  facet normal -0.000000e+00 1.000000e+00 0.000000e+00
    outer loop
      vertex   1.715000e+02 4.100000e+01 1.585000e+02
      vertex   1.730000e+02 4.100000e+01 1.600000e+02
      vertex   1.730000e+02 4.100000e+01 -3.000000e+00
    endloop
  endfacet
  facet normal 0.000000e+00 1.000000e+00 0.000000e+00
    outer loop
      vertex   1.715000e+02 4.100000e+01 1.585000e+02
      vertex   1.730000e+02 4.100000e+01 -3.000000e+00
      vertex   1.715000e+02 4.100000e+01 -1.500000e+00
    endloop
  endfacet
  facet normal 0.000000e+00 1.000000e+00 0.000000e+00
    outer loop
      vertex   1.715000e+02 4.100000e+01 -1.500000e+00
      vertex   1.730000e+02 4.100000e+01 -3.000000e+00
      vertex   -3.000000e+00 4.100000e+01 -3.000000e+00
    endloop
  endfacet
  facet normal 0.000000e+00 1.000000e+00 0.000000e+00
    outer loop
      vertex   1.715000e+02 4.100000e+01 -1.500000e+00
      vertex   -3.000000e+00 4.100000e+01 -3.000000e+00
      vertex   -1.500000e+00 4.100000e+01 -1.500000e+00
    endloop
  endfacet
  facet normal 0.000000e+00 1.000000e+00 0.000000e+00
    outer loop
      vertex   -1.500000e+00 4.100000e+01 -1.500000e+00
      vertex   -3.000000e+00 4.100000e+01 -3.000000e+00
      vertex   -3.000000e+00 4.100000e+01 8.600000e+01
    endloop
  endfacet
  facet normal 0.000000e+00 1.000000e+00 -0.000000e+00
    outer loop
      vertex   -1.500000e+00 4.100000e+01 -1.500000e+00
      vertex   -3.000000e+00 4.100000e+01 8.600000e+01
      vertex   -1.500000e+00 4.100000e+01 8.600000e+01
    endloop
  endfacet
  facet normal 0.000000e+00 0.000000e+00 -1.000000e+00
    outer loop
      vertex   1.566000e+02 4.100000e+01 1.585000e+02
      vertex   1.715000e+02 4.100000e+01 1.585000e+02
      vertex   1.566000e+02 3.100000e+01 1.585000e+02
    endloop
  endfacet
  facet normal 0.000000e+00 0.000000e+00 -1.000000e+00
    outer loop
      vertex   1.566000e+02 3.100000e+01 1.585000e+02
      vertex   1.715000e+02 4.100000e+01 1.585000e+02
      vertex   1.715000e+02 3.100000e+01 1.585000e+02
    endloop
  endfacet
  facet normal -1.000000e+00 -0.000000e+00 -0.000000e+00
    outer loop
      vertex   1.715000e+02 4.100000e+01 1.585000e+02
      vertex   1.715000e+02 4.100000e+01 -1.500000e+00
      vertex   1.715000e+02 3.100000e+01 1.585000e+02
    endloop
  endfacet
  facet normal -1.000000e+00 0.000000e+00 0.000000e+00
    outer loop
      vertex   1.715000e+02 3.100000e+01 1.585000e+02
      vertex   1.715000e+02 4.100000e+01 -1.500000e+00
      vertex   1.715000e+02 3.100000e+01 -1.500000e+00
    endloop
  endfacet
  facet normal -8.342716e-17 0.000000e+00 1.000000e+00
    outer loop
      vertex   1.715000e+02 4.100000e+01 -1.500000e+00
      vertex   -1.500000e+00 4.100000e+01 -1.500000e+00
      vertex   1.715000e+02 3.100000e+01 -1.500000e+00
    endloop
  endfacet
  facet normal -8.342716e-17 0.000000e+00 1.000000e+00
    outer loop
      vertex   1.715000e+02 3.100000e+01 -1.500000e+00
      vertex   -1.500000e+00 4.100000e+01 -1.500000e+00
      vertex   -1.500000e+00 3.100000e+01 -1.500000e+00
    endloop
  endfacet
  facet normal 1.000000e+00 0.000000e+00 -8.881784e-17
    outer loop
      vertex   -1.500000e+00 4.100000e+01 -1.500000e+00
      vertex   -1.500000e+00 4.100000e+01 8.600000e+01
      vertex   -1.500000e+00 3.100000e+01 -1.500000e+00
    endloop
  endfacet
  facet normal 1.000000e+00 0.000000e+00 -8.881784e-17
    outer loop
      vertex   -1.500000e+00 3.100000e+01 -1.500000e+00
      vertex   -1.500000e+00 4.100000e+01 8.600000e+01
      vertex   -1.500000e+00 3.100000e+01 8.600000e+01
    endloop
  endfacet
  facet normal 0.000000e+00 1.000000e+00 0.000000e+00
    outer loop
      vertex   1.700000e+02 3.100000e+01 0.000000e+00
      vertex   -1.500000e+00 3.100000e+01 -1.500000e+00
      vertex   0.000000e+00 3.100000e+01 0.000000e+00
    endloop
  endfacet
  facet normal 0.000000e+00 1.000000e+00 0.000000e+00
    outer loop
      vertex   0.000000e+00 3.100000e+01 0.000000e+00
      vertex   -1.500000e+00 3.100000e+01 -1.500000e+00
      vertex   -1.500000e+00 3.100000e+01 8.600000e+01
    endloop
  endfacet
  facet normal 0.000000e+00 1.000000e+00 -0.000000e+00
    outer loop
      vertex   0.000000e+00 3.100000e+01 0.000000e+00
      vertex   -1.500000e+00 3.100000e+01 8.600000e+01
      vertex   0.000000e+00 3.100000e+01 8.600000e+01
    endloop
  endfacet
  facet normal 0.000000e+00 1.000000e+00 0.000000e+00
    outer loop
      vertex   -1.500000e+00 3.100000e+01 -1.500000e+00
      vertex   1.700000e+02 3.100000e+01 0.000000e+00
      vertex   1.715000e+02 3.100000e+01 -1.500000e+00
    endloop
  endfacet
  facet normal 0.000000e+00 1.000000e+00 0.000000e+00
    outer loop
      vertex   1.715000e+02 3.100000e+01 -1.500000e+00
      vertex   1.700000e+02 3.100000e+01 0.000000e+00
      vertex   1.700000e+02 3.100000e+01 1.570000e+02
    endloop
  endfacet
  facet normal 0.000000e+00 1.000000e+00 -0.000000e+00
    outer loop
      vertex   1.715000e+02 3.100000e+01 -1.500000e+00
      vertex   1.700000e+02 3.100000e+01 1.570000e+02
      vertex   1.715000e+02 3.100000e+01 1.585000e+02
    endloop
  endfacet
  facet normal 0.000000e+00 1.000000e+00 0.000000e+00
    outer loop
      vertex   1.715000e+02 3.100000e+01 1.585000e+02
      vertex   1.700000e+02 3.100000e+01 1.570000e+02
      vertex   1.566000e+02 3.100000e+01 1.585000e+02
    endloop
  endfacet
  facet normal 0.000000e+00 1.000000e+00 0.000000e+00
    outer loop
      vertex   1.566000e+02 3.100000e+01 1.585000e+02
      vertex   1.700000e+02 3.100000e+01 1.570000e+02
      vertex   1.566000e+02 3.100000e+01 1.570000e+02
    endloop
  endfacet
  facet normal 1.000000e+00 0.000000e+00 -9.156479e-17
    outer loop
      vertex   -1.500000e+00 4.100000e+01 1.100000e+02
      vertex   -1.500000e+00 4.100000e+01 1.585000e+02
      vertex   -1.500000e+00 3.100000e+01 1.100000e+02
    endloop
  endfacet
  facet normal 1.000000e+00 0.000000e+00 -9.156479e-17
    outer loop
      vertex   -1.500000e+00 3.100000e+01 1.100000e+02
      vertex   -1.500000e+00 4.100000e+01 1.585000e+02
      vertex   -1.500000e+00 3.100000e+01 1.585000e+02
    endloop
  endfacet
  facet normal 0.000000e+00 0.000000e+00 -1.000000e+00
    outer loop
      vertex   -1.500000e+00 4.100000e+01 1.585000e+02
      vertex   1.340000e+01 4.100000e+01 1.585000e+02
      vertex   -1.500000e+00 3.100000e+01 1.585000e+02
    endloop
  endfacet
  facet normal 0.000000e+00 0.000000e+00 -1.000000e+00
    outer loop
      vertex   -1.500000e+00 3.100000e+01 1.585000e+02
      vertex   1.340000e+01 4.100000e+01 1.585000e+02
      vertex   1.340000e+01 3.100000e+01 1.585000e+02
    endloop
  endfacet
  facet normal 0.000000e+00 1.000000e+00 -0.000000e+00
    outer loop
      vertex   0.000000e+00 3.100000e+01 1.100000e+02
      vertex   -1.500000e+00 3.100000e+01 1.100000e+02
      vertex   0.000000e+00 3.100000e+01 1.570000e+02
    endloop
  endfacet
  facet normal 0.000000e+00 1.000000e+00 0.000000e+00
    outer loop
      vertex   0.000000e+00 3.100000e+01 1.570000e+02
      vertex   -1.500000e+00 3.100000e+01 1.100000e+02
      vertex   -1.500000e+00 3.100000e+01 1.585000e+02
    endloop
  endfacet
  facet normal 0.000000e+00 1.000000e+00 -0.000000e+00
    outer loop
      vertex   0.000000e+00 3.100000e+01 1.570000e+02
      vertex   -1.500000e+00 3.100000e+01 1.585000e+02
      vertex   1.340000e+01 3.100000e+01 1.585000e+02
    endloop
  endfacet
  facet normal 0.000000e+00 1.000000e+00 0.000000e+00
    outer loop
      vertex   1.340000e+01 3.100000e+01 1.585000e+02
      vertex   1.340000e+01 3.100000e+01 1.570000e+02
      vertex   0.000000e+00 3.100000e+01 1.570000e+02
    endloop
  endfacet
  facet normal 0.000000e+00 0.000000e+00 1.000000e+00
    outer loop
      vertex   1.700000e+02 3.100000e+01 0.000000e+00
      vertex   0.000000e+00 3.100000e+01 0.000000e+00
      vertex   1.700000e+02 4.000000e+00 0.000000e+00
    endloop
  endfacet
  facet normal 0.000000e+00 0.000000e+00 1.000000e+00
    outer loop
      vertex   1.700000e+02 4.000000e+00 0.000000e+00
      vertex   0.000000e+00 3.100000e+01 0.000000e+00
      vertex   0.000000e+00 4.000000e+00 0.000000e+00
    endloop
  endfacet
  facet normal 0.000000e+00 1.000000e+00 -0.000000e+00
    outer loop
      vertex   1.340000e+01 4.100000e+01 1.585000e+02
      vertex   -1.500000e+00 4.100000e+01 1.585000e+02
      vertex   1.340000e+01 4.100000e+01 1.600000e+02
    endloop
  endfacet
  facet normal 0.000000e+00 1.000000e+00 0.000000e+00
    outer loop
      vertex   1.340000e+01 4.100000e+01 1.600000e+02
      vertex   -1.500000e+00 4.100000e+01 1.585000e+02
      vertex   -3.000000e+00 4.100000e+01 1.600000e+02
    endloop
  endfacet
  facet normal 0.000000e+00 1.000000e+00 0.000000e+00
    outer loop
      vertex   -3.000000e+00 4.100000e+01 1.600000e+02
      vertex   -1.500000e+00 4.100000e+01 1.585000e+02
      vertex   -3.000000e+00 4.100000e+01 1.100000e+02
    endloop
  endfacet
  facet normal 0.000000e+00 1.000000e+00 0.000000e+00
    outer loop
      vertex   -3.000000e+00 4.100000e+01 1.100000e+02
      vertex   -1.500000e+00 4.100000e+01 1.585000e+02
      vertex   -1.500000e+00 4.100000e+01 1.100000e+02
    endloop
  endfacet
  facet normal -1.000000e+00 -0.000000e+00 -5.022863e-10
    outer loop
      vertex   -3.000000e+00 4.100000e+01 8.600000e+01
      vertex   -3.000000e+00 4.100000e+01 -3.000000e+00
      vertex   -3.000000e+00 1.400000e+01 8.600000e+01
    endloop
  endfacet
  facet normal -1.000000e+00 -1.624717e-16 -5.022863e-10
    outer loop
      vertex   -3.000000e+00 1.400000e+01 8.600000e+01
      vertex   -3.000000e+00 4.100000e+01 -3.000000e+00
      vertex   -3.000000e+00 0.000000e+00 -3.000000e+00
    endloop
  endfacet
  facet normal -1.000000e+00 -3.193106e-09 0.000000e+00
    outer loop
      vertex   -3.000000e+00 1.400000e+01 8.600000e+01
      vertex   -3.000000e+00 0.000000e+00 -3.000000e+00
      vertex   -3.000000e+00 0.000000e+00 1.600000e+02
    endloop
  endfacet
  facet normal -1.000000e+00 -3.193106e-09 0.000000e+00
    outer loop
      vertex   -3.000000e+00 1.400000e+01 8.600000e+01
      vertex   -3.000000e+00 0.000000e+00 1.600000e+02
      vertex   -3.000000e+00 1.400000e+01 1.100000e+02
    endloop
  endfacet
  facet normal -1.000000e+00 -1.624717e-16 8.940696e-10
    outer loop
      vertex   -3.000000e+00 1.400000e+01 1.100000e+02
      vertex   -3.000000e+00 0.000000e+00 1.600000e+02
      vertex   -3.000000e+00 4.100000e+01 1.600000e+02
    endloop
  endfacet
  facet normal -1.000000e+00 0.000000e+00 8.940695e-10
    outer loop
      vertex   -3.000000e+00 1.400000e+01 1.100000e+02
      vertex   -3.000000e+00 4.100000e+01 1.600000e+02
      vertex   -3.000000e+00 4.100000e+01 1.100000e+02
    endloop
  endfacet
  facet normal 3.784851e-17 2.707861e-16 -1.000000e+00
    outer loop
      vertex   1.730000e+02 0.000000e+00 -3.000000e+00
      vertex   -3.000000e+00 0.000000e+00 -3.000000e+00
      vertex   1.730000e+02 4.100000e+01 -3.000000e+00
    endloop
  endfacet
  facet normal 0.000000e+00 4.332578e-16 -1.000000e+00
    outer loop
      vertex   1.730000e+02 4.100000e+01 -3.000000e+00
      vertex   -3.000000e+00 0.000000e+00 -3.000000e+00
      vertex   -3.000000e+00 4.100000e+01 -3.000000e+00
    endloop
  endfacet
  facet normal 1.000000e+00 -0.000000e+00 0.000000e+00
    outer loop
      vertex   1.730000e+02 0.000000e+00 1.600000e+02
      vertex   1.730000e+02 0.000000e+00 -3.000000e+00
      vertex   1.730000e+02 4.100000e+01 1.600000e+02
    endloop
  endfacet
  facet normal 1.000000e+00 0.000000e+00 0.000000e+00
    outer loop
      vertex   1.730000e+02 4.100000e+01 1.600000e+02
      vertex   1.730000e+02 0.000000e+00 -3.000000e+00
      vertex   1.730000e+02 4.100000e+01 -3.000000e+00
    endloop
  endfacet
  facet normal -1.453772e-07 9.564509e-24 1.000000e+00
    outer loop
      vertex   1.340000e+01 4.100000e+01 1.600000e+02
      vertex   -3.000000e+00 4.100000e+01 1.600000e+02
      vertex   1.340000e+01 1.400000e+01 1.600000e+02
    endloop
  endfacet
  facet normal -1.453772e-07 -2.015545e-23 1.000000e+00
    outer loop
      vertex   1.340000e+01 1.400000e+01 1.600000e+02
      vertex   -3.000000e+00 4.100000e+01 1.600000e+02
      vertex   -3.000000e+00 0.000000e+00 1.600000e+02
    endloop
  endfacet
  facet normal 0.000000e+00 -1.702990e-07 1.000000e+00
    outer loop
      vertex   1.340000e+01 1.400000e+01 1.600000e+02
      vertex   -3.000000e+00 0.000000e+00 1.600000e+02
      vertex   1.730000e+02 0.000000e+00 1.600000e+02
    endloop
  endfacet
  facet normal 0.000000e+00 -1.702990e-07 1.000000e+00
    outer loop
      vertex   1.340000e+01 1.400000e+01 1.600000e+02
      vertex   1.730000e+02 0.000000e+00 1.600000e+02
      vertex   1.566000e+02 1.400000e+01 1.600000e+02
    endloop
  endfacet
  facet normal 1.453772e-07 0.000000e+00 1.000000e+00
    outer loop
      vertex   1.566000e+02 1.400000e+01 1.600000e+02
      vertex   1.730000e+02 0.000000e+00 1.600000e+02
      vertex   1.730000e+02 4.100000e+01 1.600000e+02
    endloop
  endfacet
  facet normal 1.453772e-07 -0.000000e+00 1.000000e+00
    outer loop
      vertex   1.566000e+02 1.400000e+01 1.600000e+02
      vertex   1.730000e+02 4.100000e+01 1.600000e+02
      vertex   1.566000e+02 4.100000e+01 1.600000e+02
    endloop
  endfacet
  facet normal 0.000000e+00 1.000000e+00 0.000000e+00
    outer loop
      vertex   1.700000e+02 4.000000e+00 1.370000e+02
      vertex   1.700000e+02 4.000000e+00 1.152500e+02
      vertex   0.000000e+00 4.000000e+00 1.370000e+02
    endloop
  endfacet
  facet normal 0.000000e+00 1.000000e+00 0.000000e+00
    outer loop
      vertex   0.000000e+00 4.000000e+00 1.370000e+02
      vertex   1.700000e+02 4.000000e+00 1.152500e+02
      vertex   0.000000e+00 4.000000e+00 1.152500e+02
    endloop
  endfacet
  facet normal -0.000000e+00 -1.000000e+00 -0.000000e+00
    outer loop
      vertex   1.730000e+02 0.000000e+00 1.600000e+02
      vertex   -3.000000e+00 0.000000e+00 1.600000e+02
      vertex   1.730000e+02 0.000000e+00 -3.000000e+00
    endloop
  endfacet
  facet normal -0.000000e+00 -1.000000e+00 0.000000e+00
    outer loop
      vertex   1.730000e+02 0.000000e+00 -3.000000e+00
      vertex   -3.000000e+00 0.000000e+00 1.600000e+02
      vertex   -3.000000e+00 0.000000e+00 -3.000000e+00
    endloop
  endfacet
endsolid
